<svg width="31" height="30" viewBox="0 0 31 30" fill="none" xmlns="http://www.w3.org/2000/svg">
<g id="Union">
<path fill-rule="evenodd" clip-rule="evenodd" d="M20.5759 12.9398C20.81 11.7269 20.9326 10.4743 20.9326 9.19307V0.401115H1.27997V28.8457C6.039 28.8457 10.4029 27.1541 13.8033 24.3394C17.1957 26.5994 22.6354 28.7477 29.2074 27.5528C27.3973 26.777 20.4154 22.1224 20.674 12.8133C20.6426 12.8565 20.6099 12.8986 20.5759 12.9398Z" fill="#278EFF"/>
<path d="M20.5759 12.9398L20.8865 13.1965L20.1802 12.8634L20.5759 12.9398ZM20.9326 0.401115V-0.0018101H21.3355V0.401115H20.9326ZM1.27997 0.401115H0.877041V-0.0018101H1.27997V0.401115ZM1.27997 28.8457V29.2486H0.877041V28.8457H1.27997ZM13.8033 24.3394L13.5464 24.0291L13.7773 23.8379L14.0267 24.0041L13.8033 24.3394ZM29.2074 27.5528L29.3661 27.1824L30.5965 27.7097L29.2795 27.9492L29.2074 27.5528ZM20.674 12.8133L20.3482 12.5763L21.1129 11.5248L21.0768 12.8245L20.674 12.8133ZM21.3355 9.19307C21.3355 10.5001 21.2104 11.7783 20.9715 13.0162L20.1802 12.8634C20.4095 11.6756 20.5297 10.4486 20.5297 9.19307H21.3355ZM21.3355 0.401115V9.19307H20.5297V0.401115H21.3355ZM1.27997 -0.0018101H20.9326V0.804041H1.27997V-0.0018101ZM0.877041 28.8457V0.401115H1.68289V28.8457H0.877041ZM14.0602 24.6498C10.5903 27.5221 6.13621 29.2486 1.27997 29.2486V28.4428C5.94178 28.4428 10.2156 26.7861 13.5464 24.0291L14.0602 24.6498ZM29.2795 27.9492C22.5791 29.1675 17.0347 26.9763 13.5799 24.6748L14.0267 24.0041C17.3567 26.2225 22.6916 28.3279 29.1353 27.1563L29.2795 27.9492ZM21.0768 12.8245C20.9506 17.3678 22.589 20.7681 24.4796 23.1313C26.3781 25.5045 28.5228 26.821 29.3661 27.1824L29.0487 27.9231C28.0819 27.5088 25.8306 26.1101 23.8503 23.6348C21.8621 21.1495 20.1389 17.5679 20.2712 12.8021L21.0768 12.8245ZM20.2652 12.6832C20.2941 12.6483 20.3217 12.6126 20.3482 12.5763L20.9999 13.0503C20.9635 13.1003 20.9257 13.149 20.8865 13.1965L20.2652 12.6832Z" fill="#278EFF"/>
</g>
</svg>
